<svg xmlns="http://www.w3.org/2000/svg" xmlns:xlink="http://www.w3.org/1999/xlink" width="931.665" height="299.873" viewBox="0 0 931.665 299.873">
  <defs>
    <linearGradient id="linear-gradient" x1="0.986" y1="0.5" x2="8.375" y2="0.5" gradientUnits="objectBoundingBox">
      <stop offset="0" stop-color="#ef1866"/>
      <stop offset="0.047" stop-color="#f01e6a"/>
      <stop offset="0.275" stop-color="#f6387f"/>
      <stop offset="0.507" stop-color="#fb4b8d"/>
      <stop offset="0.746" stop-color="#fe5796"/>
      <stop offset="1" stop-color="#ff5b99"/>
    </linearGradient>
    <linearGradient id="linear-gradient-2" x1="-1.444" y1="0.5" x2="55.357" y2="0.5" xlink:href="#linear-gradient"/>
    <linearGradient id="linear-gradient-3" x1="-0.508" y1="0.5" x2="7.004" y2="0.5" xlink:href="#linear-gradient"/>
    <linearGradient id="linear-gradient-4" x1="-1.165" y1="0.5" x2="4.695" y2="0.5" xlink:href="#linear-gradient"/>
    <linearGradient id="linear-gradient-5" x1="-2.886" y1="0.5" x2="4.626" y2="0.5" xlink:href="#linear-gradient"/>
    <linearGradient id="linear-gradient-6" x1="-3.353" y1="0.5" x2="3.004" y2="0.5" xlink:href="#linear-gradient"/>
    <clipPath id="clip-path">
      <path id="SVGID" d="M681.05,879.331l-109.382,109.4A40.565,40.565,0,0,1,565.5,993.8a52.5,52.5,0,0,1,14.6,10.34l44.031,44.039,56.917-56.928,56.913,56.928,44.031-44.039a52.5,52.5,0,0,1,14.6-10.34,40.552,40.552,0,0,1-6.164-5.067Z" transform="translate(-565.505 -879.331)" fill="none" clip-rule="evenodd"/>
    </clipPath>
    <linearGradient id="linear-gradient-7" x1="0.5" y1="1.078" x2="0.5" y2="0.174" xlink:href="#linear-gradient"/>
    <clipPath id="clip-path-2">
      <path id="SVGID-2" data-name="SVGID" d="M721.8,956.047v18.932a40.512,40.512,0,0,1-69.189,28.638l-35.645-35.656,44.079-44.094a28.7,28.7,0,0,1,39.932-.523l.515.548a28.544,28.544,0,0,1,8.379,20.227,11.929,11.929,0,0,0,11.93,11.925" transform="translate(-616.963 -915.519)" fill="none" clip-rule="evenodd"/>
    </clipPath>
    <linearGradient id="linear-gradient-8" x1="0" y1="0.5" x2="1" y2="0.5" xlink:href="#linear-gradient"/>
    <clipPath id="clip-path-3">
      <path id="SVGID-3" data-name="SVGID" d="M658.548,949.036V901.281a40.493,40.493,0,0,1-18.008,33.7,52.891,52.891,0,0,1,14.546,10.292l.026-.022q1.81,1.81,3.437,3.786" transform="translate(-640.54 -901.281)" fill="none" clip-rule="evenodd"/>
    </clipPath>
    <linearGradient id="linear-gradient-9" x1="0.5" y1="1.248" x2="0.5" y2="0.126" gradientUnits="objectBoundingBox">
      <stop offset="0" stop-color="#d4145a"/>
      <stop offset="1" stop-color="#fbb03b"/>
    </linearGradient>
    <clipPath id="clip-path-4">
      <path id="SVGID-4" data-name="SVGID" d="M548.377,956.066V975a40.512,40.512,0,0,0,69.189,28.639l35.645-35.652-44.079-44.094a28.693,28.693,0,0,0-39.928-.53l-.519.556A28.515,28.515,0,0,0,560.3,944.14a11.926,11.926,0,0,1-11.926,11.925" transform="translate(-548.377 -915.538)" fill="none" clip-rule="evenodd"/>
    </clipPath>
    <linearGradient id="linear-gradient-10" x1="0.5" y1="1.248" x2="0.5" y2="0.126" xlink:href="#linear-gradient"/>
    <clipPath id="clip-path-5">
      <path id="SVGID-5" data-name="SVGID" d="M566.385,934.98a40.484,40.484,0,0,1-18.008-33.7v47.755q1.629-1.97,3.437-3.786l.762-.7a52.81,52.81,0,0,1,13.81-9.574" transform="translate(-548.377 -901.281)" fill="none" clip-rule="evenodd"/>
    </clipPath>
  </defs>
  <g id="Group_55201" data-name="Group 55201" transform="translate(-398.406 -867)">
    <g id="Group_55183" data-name="Group 55183" transform="translate(398.406 1074.636)">
      <path id="Path_53795" data-name="Path 53795" d="M468.9,923.428c4.147,0,6.016,1.865,6.016,5.806v6.013c0,3.521-.728,4.666-3.422,6.428l-61.48,41.47a1.94,1.94,0,0,0-.828,1.759v1.037c0,.622.309.935,1.038.935h62.617a1.267,1.267,0,0,1,1.45,1.449v6.219a1.268,1.268,0,0,1-1.45,1.453H404.419c-4.147,0-6.013-1.865-6.013-5.8v-6.017c0-3.525.622-4.563,3.315-6.322L463,936.285a1.953,1.953,0,0,0,.828-1.766v-1.034c0-.622-.313-.935-1.038-.935H400.478a1.309,1.309,0,0,1-1.45-1.45v-6.222a1.311,1.311,0,0,1,1.45-1.45Z" transform="translate(-398.406 -923.428)" fill="url(#linear-gradient)"/>
      <path id="Path_53796" data-name="Path 53796" d="M431.308,923.428a1.312,1.312,0,0,1,1.453,1.45v69.667A1.313,1.313,0,0,1,431.308,996h-7.051a1.31,1.31,0,0,1-1.45-1.453V924.878a1.309,1.309,0,0,1,1.45-1.45Z" transform="translate(-333.017 -923.428)" fill="url(#linear-gradient-2)"/>
      <path id="Path_53797" data-name="Path 53797" d="M503.1,923.428a1.268,1.268,0,0,1,1.45,1.45V931.1a1.267,1.267,0,0,1-1.45,1.45h-45.1c-14,0-18.766,4.77-18.766,18.87v4.666h63.238a1.376,1.376,0,0,1,1.557,1.557v5.18c0,.935-.519,1.454-1.557,1.454H439.239v30.268a1.312,1.312,0,0,1-1.45,1.453h-7.05a1.311,1.311,0,0,1-1.45-1.453V950.8c0-19.906,7.878-27.369,28.4-27.369Z" transform="translate(-315.65 -923.428)" fill="url(#linear-gradient-3)"/>
      <path id="Path_53798" data-name="Path 53798" d="M499.183,923.428c3.735,0,5.807,1.14,8.191,5.288l38.257,65.52c.622,1.037.206,1.763-.831,1.763h-7.981a1.718,1.718,0,0,1-1.762-.931L525.828,979.2H469.64l-9.122,15.863a1.821,1.821,0,0,1-1.766.931h-8.187c-1.038,0-1.453-.725-.832-1.763l38.151-65.52c2.385-4.147,4.46-5.288,7.466-5.288Zm-24.985,48h47.071L499.29,933.485a1.272,1.272,0,0,0-1.244-.725h-.622a1.13,1.13,0,0,0-1.247.725Z" transform="translate(-261.65 -923.428)" fill="url(#linear-gradient-4)"/>
      <path id="Path_53799" data-name="Path 53799" d="M551.738,923.428a1.268,1.268,0,0,1,1.45,1.45V931.1a1.267,1.267,0,0,1-1.45,1.45h-45.1c-14,0-18.766,4.77-18.766,18.87v4.666h63.239a1.376,1.376,0,0,1,1.556,1.557v5.18c0,.935-.519,1.454-1.556,1.454H487.874v30.268a1.312,1.312,0,0,1-1.45,1.453h-7.05a1.311,1.311,0,0,1-1.45-1.453V950.8c0-19.906,7.878-27.369,28.4-27.369Z" transform="translate(-185.324 -923.428)" fill="url(#linear-gradient-5)"/>
      <path id="Path_53800" data-name="Path 53800" d="M509.528,923.428a1.782,1.782,0,0,1,1.659.828l33.382,41.47,33.279-41.47a1.781,1.781,0,0,1,1.659-.828h8.5c.828,0,1.141.725.622,1.45l-39.291,48.1v21.563a1.312,1.312,0,0,1-1.45,1.453h-7.05a1.313,1.313,0,0,1-1.454-1.453V972.982l-39.188-48.1c-.515-.725-.206-1.45.622-1.45Z" transform="translate(-126.317 -923.428)" fill="url(#linear-gradient-6)"/>
    </g>
    <g id="Group_55194" data-name="Group 55194" transform="translate(927.563 867)">
      <g id="Group_55185" data-name="Group 55185" transform="translate(85.71 45.374)">
        <g id="Group_55184" data-name="Group 55184" clip-path="url(#clip-path)">
          <rect id="Rectangle_11472" data-name="Rectangle 11472" width="231.084" height="168.851" transform="translate(0.002 -0.002)" fill="url(#linear-gradient-7)"/>
        </g>
      </g>
      <path id="Path_53801" data-name="Path 53801" d="M634.239,879.331,582.974,930.6a68.48,68.48,0,0,0,102.526,0Z" transform="translate(-432.983 -833.957)" fill="#a30f45" fill-rule="evenodd" opacity="0.15"/>
      <path id="Path_53802" data-name="Path 53802" d="M611.146,888.054,688.43,965.36a40.34,40.34,0,0,0,6.16,5.067,52.533,52.533,0,0,0-14.6,10.339l-2.753,2.752a65.413,65.413,0,0,1-73.67-64.887,65.128,65.128,0,0,1,7.576-30.578" transform="translate(-377.793 -810.582)" fill="#a30f45" fill-rule="evenodd" opacity="0.15"/>
      <path id="Path_53803" data-name="Path 53803" d="M693.9,922.759c-1.332,1.1-2.624,2.267-3.86,3.506L646.017,970.3l-46.2-46.21a81.164,81.164,0,0,1,94.085-1.335" transform="translate(-387.845 -756.081)" fill="#a30f45" fill-rule="evenodd" opacity="0.15"/>
      <g id="Group_55187" data-name="Group 55187" transform="translate(275.059 178.533)">
        <g id="Group_55186" data-name="Group 55186" clip-path="url(#clip-path-2)">
          <rect id="Rectangle_11473" data-name="Rectangle 11473" width="104.833" height="99.995" transform="translate(0.001 -0.001)" fill="url(#linear-gradient-8)"/>
        </g>
      </g>
      <path id="Path_53804" data-name="Path 53804" d="M697.2,996.349a40.527,40.527,0,0,1-44.591-8.644l-35.645-35.656,30.578-30.593A170.7,170.7,0,0,1,697.2,996.349" transform="translate(-341.904 -721.074)" fill="#a30f45" fill-rule="evenodd" opacity="0.15"/>
      <path id="Path_53805" data-name="Path 53805" d="M703.438,928.47v11.8a40.512,40.512,0,0,1-69.188,28.639l-10.435-10.443a169.666,169.666,0,0,1,79.624-30" transform="translate(-323.546 -702.281)" fill="#a30f45" fill-rule="evenodd" opacity="0.15"/>
      <g id="Group_55189" data-name="Group 55189" transform="translate(361.814 126.143)">
        <g id="Group_55188" data-name="Group 55188" clip-path="url(#clip-path-3)">
          <rect id="Rectangle_11474" data-name="Rectangle 11474" width="18.007" height="47.755" transform="translate(0.001 0.001)" fill="url(#linear-gradient-9)"/>
        </g>
      </g>
      <g id="Group_55191" data-name="Group 55191" transform="translate(22.685 178.604)">
        <g id="Group_55190" data-name="Group 55190" clip-path="url(#clip-path-4)">
          <rect id="Rectangle_11475" data-name="Rectangle 11475" width="104.833" height="99.995" transform="translate(0.001)" fill="url(#linear-gradient-10)"/>
        </g>
      </g>
      <path id="Path_53806" data-name="Path 53806" d="M625.549,952.085l-28.186-28.193a28.693,28.693,0,0,0-39.928-.53l-.519.556a28.763,28.763,0,0,0-4.147,5.243,61.8,61.8,0,0,0,72.78,22.924" transform="translate(-513.923 -736.934)" fill="#a30f45" fill-rule="evenodd" opacity="0.15"/>
      <path id="Path_53807" data-name="Path 53807" d="M555.062,996.362a40.509,40.509,0,0,0,44.59-8.639L635.3,952.07l-30.582-30.593a170.713,170.713,0,0,0-49.654,74.885" transform="translate(-507.778 -721.02)" fill="#a30f45" fill-rule="evenodd" opacity="0.15"/>
      <g id="Group_55193" data-name="Group 55193" transform="translate(22.685 126.143)">
        <g id="Group_55192" data-name="Group 55192" clip-path="url(#clip-path-5)">
          <rect id="Rectangle_11476" data-name="Rectangle 11476" width="18.007" height="47.755" transform="translate(0.001 0.001)" fill="url(#linear-gradient-9)"/>
        </g>
      </g>
      <path id="Path_53808" data-name="Path 53808" d="M648.952,888.054,571.668,965.36a40.569,40.569,0,0,1-6.164,5.067,52.487,52.487,0,0,1,14.6,10.339l2.756,2.752a65.417,65.417,0,0,0,73.674-64.887,65.089,65.089,0,0,0-7.58-30.578" transform="translate(-479.795 -810.582)" fill="#a30f45" fill-rule="evenodd" opacity="0.15"/>
      <path id="Path_53809" data-name="Path 53809" d="M568.424,922.759q2,1.65,3.856,3.506L616.311,970.3l46.2-46.21a81.17,81.17,0,0,0-94.089-1.335" transform="translate(-471.973 -756.081)" fill="#a30f45" fill-rule="evenodd" opacity="0.15"/>
      <path id="Path_53810" data-name="Path 53810" d="M548.377,928.49v11.8a40.512,40.512,0,0,0,69.189,28.638L628,958.487a169.615,169.615,0,0,0-79.628-30" transform="translate(-525.691 -702.227)" fill="#a30f45" fill-rule="evenodd" opacity="0.15"/>
      <path id="Path_53811" data-name="Path 53811" d="M545.136,909.966a11.926,11.926,0,1,1,23.851,0v111.921a11.926,11.926,0,1,1-23.851,0Z" transform="translate(-534.376 -783.823)" fill="#3b0052" fill-rule="evenodd"/>
      <path id="Path_53812" data-name="Path 53812" d="M642.193,909.966a11.926,11.926,0,1,1,23.852,0v111.921a11.926,11.926,0,1,1-23.852,0Z" transform="translate(-274.297 -783.823)" fill="#3b0052" fill-rule="evenodd"/>
      <path id="Path_53813" data-name="Path 53813" d="M545.136,968.764a11.926,11.926,0,1,1,23.851,0,28.53,28.53,0,0,0,8.383,20.227l.519.548a28.625,28.625,0,0,0,39.928-.526L727.2,879.605a11.888,11.888,0,0,1,16.82-.044L853.444,989.012a28.68,28.68,0,0,0,40.447.026l.026-.022-.026-.026a28.529,28.529,0,0,0,8.383-20.227,11.926,11.926,0,1,1,23.852,0,52.314,52.314,0,0,1-15.363,37.094l-.026-.026a52.34,52.34,0,0,1-74.16-.047L735.632,904.815l-100.948,100.97a52.3,52.3,0,0,1-73.423.769l-.762-.7a52.314,52.314,0,0,1-15.363-37.094" transform="translate(-534.376 -842.621)" fill="#3b0052" fill-rule="evenodd"/>
      <path id="Path_53814" data-name="Path 53814" d="M568.987,1013.5a11.926,11.926,0,1,1-23.851,0V901.578a11.926,11.926,0,0,1,23.851,0Z" transform="translate(-534.376 -806.298)" fill="#3b0052" fill-rule="evenodd"/>
      <path id="Path_53815" data-name="Path 53815" d="M666.045,1013.5a11.926,11.926,0,1,1-23.852,0V901.578a11.926,11.926,0,0,1,23.852,0Z" transform="translate(-274.297 -806.298)" fill="#3b0052" fill-rule="evenodd"/>
      <path id="Path_53816" data-name="Path 53816" d="M568.987,961.512a11.926,11.926,0,0,1-23.851,0,52.311,52.311,0,0,1,15.363-37.1l.762-.695a52.323,52.323,0,0,1,73.423.769l100.948,100.973L836.576,924.491a52.317,52.317,0,0,1,74.16-.052l.026-.023a52.312,52.312,0,0,1,15.363,37.1,11.926,11.926,0,0,1-23.852,0,28.514,28.514,0,0,0-8.383-20.223l.026-.026-.026-.026a28.64,28.64,0,0,0-40.447.026L744.018,1050.718a11.888,11.888,0,0,1-16.82-.048L617.816,941.263a28.691,28.691,0,0,0-39.928-.53l-.519.556a28.515,28.515,0,0,0-8.383,20.223" transform="translate(-534.376 -754.307)" fill="#3b0052" fill-rule="evenodd"/>
      <path id="Path_53817" data-name="Path 53817" d="M564.9,886.729a22.685,22.685,0,1,1-22.685,22.685A22.684,22.684,0,0,1,564.9,886.729" transform="translate(-542.212 -814.133)" fill="#3b0052" fill-rule="evenodd"/>
      <path id="Path_53818" data-name="Path 53818" d="M661.954,886.729a22.685,22.685,0,1,1-22.685,22.685,22.684,22.684,0,0,1,22.685-22.685" transform="translate(-282.132 -814.133)" fill="#3b0052" fill-rule="evenodd"/>
      <path id="Path_53819" data-name="Path 53819" d="M613.429,867a22.687,22.687,0,1,1-22.689,22.685A22.683,22.683,0,0,1,613.429,867" transform="translate(-412.173 -867)" fill="#3b0052" fill-rule="evenodd"/>
      <path id="Path_53820" data-name="Path 53820" d="M545.136,999.179a11.926,11.926,0,1,1,23.851,0,28.519,28.519,0,0,0,8.383,20.227l.519.552a28.628,28.628,0,0,0,39.928-.53L727.2,910.021a11.891,11.891,0,0,1,16.82-.045l109.426,109.452a28.681,28.681,0,0,0,40.447.026l.026-.022-.026-.025a28.517,28.517,0,0,0,8.383-20.227,11.926,11.926,0,1,1,23.852,0,52.3,52.3,0,0,1-15.363,37.094l-.026-.026a52.339,52.339,0,0,1-74.16-.048L735.632,935.23,634.684,1036.2a52.3,52.3,0,0,1-73.423.772l-.762-.7a52.3,52.3,0,0,1-15.363-37.094" transform="translate(-534.376 -761.115)" fill="#3b0052" fill-rule="evenodd"/>
      <path id="Path_53821" data-name="Path 53821" d="M568.9,929.889a28.743,28.743,0,0,1,30.659-5.667q1.171.486,2.289,1.067l-1.4-1.4a28.693,28.693,0,0,0-39.928-.53l-.519.556a28.516,28.516,0,0,0-8.383,20.223V975A28.517,28.517,0,0,0,560,995.225l.519.552a28.338,28.338,0,0,0,6.7,4.735,28.5,28.5,0,0,1-7.208-18.987V950.661a28.518,28.518,0,0,1,8.375-20.219Z" transform="translate(-517.007 -736.934)" fill="#fff" fill-rule="evenodd"/>
      <path id="Path_53822" data-name="Path 53822" d="M621.117,952.085l28.19-28.193a28.7,28.7,0,0,1,39.932-.53l.515.556a28.444,28.444,0,0,1,4.147,5.243,61.807,61.807,0,0,1-72.784,22.924" transform="translate(-330.773 -736.934)" fill="#a30f45" fill-rule="evenodd" opacity="0.15"/>
      <path id="Path_53823" data-name="Path 53823" d="M661.509,929.866a28.763,28.763,0,0,0-30.655-5.663c-.777.32-1.546.677-2.293,1.067l1.4-1.4a28.7,28.7,0,0,1,39.932-.523l.515.548a28.546,28.546,0,0,1,8.378,20.227v30.858a28.532,28.532,0,0,1-8.378,20.227l-.515.552a28.524,28.524,0,0,1-6.7,4.735,28.52,28.52,0,0,0,7.212-18.984V950.645a28.5,28.5,0,0,0-8.382-20.223Z" transform="translate(-310.826 -736.986)" fill="#fff" fill-rule="evenodd"/>
      <path id="Path_53824" data-name="Path 53824" d="M575.039,994.645l98.191-98.21,98.188,98.21,2.756-2.752c1.237-1.24,2.528-2.414,3.86-3.511-1.332-1.1-2.623-2.274-3.86-3.51L673.231,883.9,572.283,984.872c-1.236,1.236-2.528,2.411-3.86,3.51,1.332,1.1,2.624,2.271,3.86,3.511Z" transform="translate(-471.975 -821.708)" fill="#fff" fill-rule="evenodd"/>
    </g>
    <g id="Group_55195" data-name="Group 55195" transform="translate(398.406 919.034)">
      <path id="Path_53825" data-name="Path 53825" d="M414.206,904.922v13.5q0,12.153,6.616,18.5t19.042,6.347h12.154V927.746q0-17.7,9.449-27.012t26.876-9.317h19.447v40.649q0,11.21,8.776,11.208h11.414v15.665H516.567q-11.613,0-18.1-7.29t-6.48-19.583V906.813h-3.378q-10.807,0-15.867,5.063t-5.063,15.734v31.329H439.865q-19.451,0-30.453-11.006t-11.006-29.507v-13.5Zm9.449,73.059a8.688,8.688,0,0,1,2.568-6.281,8.947,8.947,0,0,1,15.26,6.281,8.912,8.912,0,0,1-2.568,6.344,8.674,8.674,0,0,1-6.344,2.7,8.462,8.462,0,0,1-6.281-2.7A8.8,8.8,0,0,1,423.656,977.981Zm27.281-6.211a8.239,8.239,0,0,1,6.211-2.7,8.732,8.732,0,0,1,6.414,2.635,8.564,8.564,0,0,1,2.635,6.281,8.782,8.782,0,0,1-2.635,6.344,8.612,8.612,0,0,1-6.414,2.7,8.455,8.455,0,0,1-6.278-2.7,8.8,8.8,0,0,1-2.635-6.344A8.234,8.234,0,0,1,450.937,971.77Z" transform="translate(-398.406 -853.605)" fill="#3b0052"/>
      <path id="Path_53826" data-name="Path 53826" d="M432.886,977.426V961.762h20.253q-10.129-7.694-10.127-20.8a29.586,29.586,0,0,1,9.317-21.942q9.322-9.118,23.094-9.118a32.049,32.049,0,0,1,24.105,10.06q9.654,10.062,9.656,25.051v32.411Zm24.577-33.762a17.979,17.979,0,0,0,17.961,18.1h17.96v-18.1a17.961,17.961,0,1,0-35.921,0Zm8.371-49.83a9.222,9.222,0,1,1,2.7,6.616A9.016,9.016,0,0,1,465.834,893.835Z" transform="translate(-306.011 -872.091)" fill="#3b0052"/>
      <path id="Path_53827" data-name="Path 53827" d="M458.025,881.141h15.8v77.788q0,11.878,9.321,11.882h3.374v15.665h-3.374q-11.343,0-18.233-7.628t-6.885-19.919Z" transform="translate(-238.647 -881.141)" fill="#3b0052"/>
      <path id="Path_53828" data-name="Path 53828" d="M519.051,921.174H465.034V905.51h54.017Z" transform="translate(-219.865 -815.84)" fill="#3b0052"/>
      <path id="Path_53829" data-name="Path 53829" d="M532.994,921.174H478.98V905.51h54.014Z" transform="translate(-182.495 -815.84)" fill="#3b0052"/>
      <path id="Path_53830" data-name="Path 53830" d="M492.925,977.426V961.762h20.256q-10.128-7.694-10.126-20.8a29.573,29.573,0,0,1,9.317-21.942q9.317-9.118,23.09-9.118a32.046,32.046,0,0,1,24.106,10.06q9.653,10.062,9.655,25.051v32.411ZM517.5,943.665a17.979,17.979,0,0,0,17.96,18.1h17.964v-18.1a17.963,17.963,0,1,0-35.925,0Zm8.375-49.83a9.222,9.222,0,1,1,2.7,6.616A9,9,0,0,1,525.876,893.835Z" transform="translate(-145.127 -872.091)" fill="#3b0052"/>
      <path id="Path_53831" data-name="Path 53831" d="M517.939,973.5a16.759,16.759,0,0,0,5.266.946q7.159,0,10.2-4.051t3.039-12.7V891.252l15.8-.133V957.7q0,15.8-7.562,23.969t-21.069,8.169a29.778,29.778,0,0,1-9.99-1.62Z" transform="translate(-89.674 -854.401)" fill="#3b0052"/>
      <path id="Path_53832" data-name="Path 53832" d="M519.087,893.53a9,9,0,0,1,2.7-6.62,8.837,8.837,0,0,1,6.48-2.7,9.066,9.066,0,0,1,6.55,2.7,8.89,8.89,0,0,1,2.771,6.62,9,9,0,0,1-2.7,6.616,9.292,9.292,0,0,1-6.62,2.7,8.824,8.824,0,0,1-6.48-2.7A8.988,8.988,0,0,1,519.087,893.53Z" transform="translate(-75.022 -872.92)" fill="#3b0052"/>
    </g>
  </g>
</svg>
